<?xml version="1.0" standalone="no"?>
<!DOCTYPE svg PUBLIC "-//W3C//DTD SVG 20010904//EN"
 "http://www.w3.org/TR/2001/REC-SVG-20010904/DTD/svg10.dtd">
<svg version="1.0" xmlns="http://www.w3.org/2000/svg"
 width="300.000000pt" height="300.000000pt" viewBox="0 0 300.000000 300.000000"
 preserveAspectRatio="xMidYMid meet">
<metadata>
Created by potrace 1.10, written by Peter Selinger 2001-2011
</metadata>
<g transform="translate(0.000000,300.000000) scale(0.100000,-0.100000)"
fill="dodgerblue" stroke="none">
<path d="M872 2180 c-64 -39 -73 -68 -70 -222 3 -137 3 -137 33 -169 42 -44
83 -59 162 -59 93 0 130 -20 166 -91 16 -30 26 -46 23 -36 -3 10 -6 54 -6 96
0 64 -4 84 -22 111 -36 53 -71 73 -130 75 -29 2 -56 3 -60 4 -13 2 -38 59 -38
85 0 27 16 44 22 24 3 -7 7 -5 11 6 4 10 3 15 -3 11 -6 -3 -10 -1 -10 4 0 6 9
11 19 11 11 0 23 5 26 10 4 6 182 10 501 10 l496 0 29 -29 c33 -33 35 -50 14
-92 -15 -29 -15 -29 4 -17 40 25 37 95 -6 136 l-24 22 -515 0 -516 0 -29 -29
c-24 -24 -29 -38 -29 -76 0 -39 5 -51 31 -75 20 -18 48 -31 75 -35 53 -8 100
-45 109 -86 8 -37 3 -44 -23 -30 -11 6 -44 11 -73 12 -81 2 -149 24 -182 61
-29 31 -29 33 -29 154 0 133 5 150 59 185 26 18 60 19 598 19 523 0 573 -1
604 -18 52 -26 74 -62 73 -117 -2 -57 6 -54 16 6 l8 44 5 -38 c7 -57 -20 -111
-69 -136 -37 -19 -59 -20 -375 -21 -376 0 -392 -3 -441 -63 l-31 -39 0 -441
c0 -427 1 -443 20 -477 37 -62 73 -75 210 -75 135 0 171 12 212 75 23 32 23
37 22 339 0 180 -4 298 -9 286 -9 -20 -9 -20 -9 0 0 11 6 34 14 50 l14 30 -5
-30 -5 -30 16 34 c18 40 19 44 3 35 -9 -6 -9 -3 0 9 8 9 17 16 20 15 4 -1 21
6 39 15 18 9 39 17 47 17 8 0 17 3 19 8 3 4 -38 5 -91 2 -78 -4 -104 -10 -133
-28 -66 -40 -69 -58 -69 -352 l0 -262 -29 -29 c-16 -16 -37 -29 -46 -29 -24 0
-72 27 -79 45 -3 9 -6 167 -6 351 l0 335 25 24 24 25 297 0 c278 0 300 1 338
20 64 32 79 59 87 169 11 151 -6 218 -68 258 -24 16 -78 17 -627 20 -585 3
-602 2 -634 -17z m1303 -282 c-4 -13 -9 -32 -12 -43 -6 -24 -40 -62 -68 -78
-13 -8 -124 -13 -327 -17 l-306 -5 -26 -24 c-14 -14 -26 -35 -26 -48 0 -13 -3
-23 -7 -23 -5 0 -9 -142 -10 -315 -2 -222 1 -315 8 -315 6 0 8 -7 5 -16 -8
-20 20 -118 45 -163 l20 -33 -28 6 c-73 17 -88 25 -113 58 l-24 32 0 431 c-1
472 -2 465 57 501 30 17 60 19 387 24 348 5 356 5 385 27 38 29 48 29 40 1z
m-440 -290 c3 -2 -2 -21 -10 -41 -12 -30 -15 -90 -15 -324 0 -168 -4 -304 -10
-325 -20 -69 -138 -129 -195 -98 -38 20 -66 64 -73 112 l-5 41 31 -23 c36 -27
93 -23 125 8 31 31 37 85 37 341 l0 243 40 38 c37 35 60 43 75 28z m-8 -610
c-2 -18 -4 -6 -4 27 0 33 2 48 4 33 2 -15 2 -42 0 -60z"/>
<path d="M945 1955 c7 -33 32 -65 49 -65 6 0 3 7 -6 14 -10 7 -25 28 -33 47
-16 33 -16 34 -10 4z"/>
</g>
</svg>
